<svg width="20" height="20" viewBox="0 0 69 53" fill="var(--mongoose)" xmlns="http://www.w3.org/2000/svg">
<path d="M0.7 1.6H4.5V12.1H4.7C5.1 10.5 5.8 9 6.8 7.6C7.8 6.13333 9 4.86667 10.4 3.8C11.8667 2.73333 13.4667 1.9 15.2 1.3C17 0.699998 18.8667 0.399998 20.8 0.399998C23.2667 0.399998 25.4 0.733331 27.2 1.4C29 2 30.5333 2.83333 31.8 3.9C33.0667 4.9 34.0667 6.06666 34.8 7.4C35.5333 8.66667 36.0333 9.96667 36.3 11.3H36.5C38.0333 7.7 40.0667 5 42.6 3.2C45.2 1.33333 48.6 0.399998 52.8 0.399998C55.1333 0.399998 57.2667 0.766664 59.2 1.5C61.2 2.16667 62.9 3.23333 64.3 4.7C65.7667 6.1 66.9 7.9 67.7 10.1C68.5 12.3 68.9 14.9 68.9 17.9V53H65.1V17.8C65.1 14.5333 64.6 11.9667 63.6 10.1C62.6 8.23333 61.4 6.83333 60 5.9C58.6667 4.9 57.3 4.3 55.9 4.1C54.5667 3.83333 53.5333 3.7 52.8 3.7C50.4667 3.7 48.3 4.1 46.3 4.9C44.3667 5.7 42.6667 6.9 41.2 8.5C39.8 10.1 38.7 12.1 37.9 14.5C37.1 16.8333 36.7 19.5333 36.7 22.6V53H32.9V17.8C32.9 14.6 32.4 12.0667 31.4 10.2C30.4667 8.26666 29.3333 6.83333 28 5.9C26.7333 4.96667 25.4 4.36666 24 4.1C22.6667 3.83333 21.6 3.7 20.8 3.7C19 3.7 17.1333 4.06666 15.2 4.8C13.2667 5.53333 11.5 6.66667 9.9 8.2C8.3 9.73333 7 11.7 6 14.1C5 16.5 4.5 19.3333 4.5 22.6V53H0.7V1.6Z"/>
</svg>
